{"accessors" : [{"bufferView" : 0, "byteOffset" : 0, "componentType" : 5125, "count" : 104805, "type" : "SCALAR", "max" : [96794], "min" : [0]}, {"bufferView" : 1, "byteOffset" : 0, "componentType" : 5126, "count" : 96795, "type" : "VEC3", "max" : [96.74628448486328, 125.92782592773438, 84.29712677001953], "min" : [0.0025296942330896854, 4.578425796353258E-05, 0.0012687909184023738], "name" : "POSITION"}, {"bufferView" : 1, "byteOffset" : 12, "componentType" : 5126, "count" : 96795, "type" : "VEC3", "max" : [0.9995884895324707, 1.0000027418136597, 0.9998793601989746], "min" : [-0.9995872974395752, -0.9999963045120239, -0.9993705749511719], "name" : "NORMAL"}], "asset" : {"generator" : "Aspose.3D 23.4.0", "version" : "2.0"}, "buffers" : [{"uri" : "data:application/octet-stream;base64,", "byteLength" : 2934548}], "bufferViews" : [{"buffer" : 0, "byteOffset" : 0, "byteLength" : 419220, "target" : 34963}, {"buffer" : 0, "byteOffset" : 419224, "byteLength" : 2515320, "byteStride" : 24, "target" : 34962}], "meshes" : [{"primitives" : [{"attributes" : {"POSITION" : 1, "NORMAL" : 2}, "indices" : 0, "mode" : 4}], "name" : ""}], "nodes" : [{"mesh" : 0, "name" : ""}], "scene" : 0, "scenes" : [{"nodes" : [0]}]}